#define tkcvs-says_width 48
#define tkcvs-says_height 48
static unsigned char tkcvs-says_bits[] = {
  0x00, 0x00, 0x00, 0x00, 0x00, 0x00, 0x00, 0x00, 0x00, 0x00, 0x00, 0x00,
  0x00, 0x00, 0x00, 0x00, 0x00, 0x00, 0x00, 0x00, 0x10, 0x00, 0x00, 0x00,
  0xa0, 0xaa, 0x28, 0x00, 0x00, 0x00, 0x50, 0x55, 0x11, 0x00, 0x00, 0x00,
  0x00, 0x0a, 0xfe, 0xff, 0x00, 0x00, 0x00, 0x84, 0xff, 0xff, 0x03, 0x00,
  0x00, 0xea, 0x2b, 0xa8, 0x0f, 0x00, 0x00, 0x7c, 0x10, 0x14, 0x3c, 0x00,
  0x00, 0x1e, 0x28, 0x0a, 0x70, 0x00, 0x00, 0x0e, 0x10, 0x04, 0xe0, 0x00,
  0x00, 0x0f, 0x28, 0x02, 0xc0, 0x01, 0x00, 0x07, 0x10, 0x01, 0x80, 0x01,
  0x80, 0x0b, 0xa8, 0x02, 0x00, 0x03, 0x80, 0x05, 0x10, 0x05, 0x00, 0x03,
  0x80, 0x0b, 0x28, 0x0a, 0x00, 0x03, 0x80, 0x05, 0x10, 0x04, 0x00, 0x03,
  0x80, 0x0b, 0x28, 0x0a, 0x00, 0x03, 0x80, 0x05, 0x10, 0x14, 0x00, 0x03,
  0x80, 0x0b, 0x28, 0x28, 0x00, 0x03, 0x80, 0x01, 0x00, 0x00, 0x00, 0x03,
  0x00, 0x03, 0x00, 0x00, 0x80, 0x01, 0x00, 0x07, 0x00, 0x00, 0xc0, 0x01,
  0x00, 0x0e, 0x00, 0x00, 0xe0, 0x00, 0x00, 0x1c, 0x00, 0x00, 0x70, 0x00,
  0x00, 0x78, 0x00, 0x00, 0x3c, 0x00, 0x00, 0xfe, 0x3d, 0xc0, 0xff, 0x0f,
  0x80, 0xfd, 0x29, 0xff, 0xff, 0x0f, 0x40, 0x82, 0xa9, 0xff, 0x12, 0x08,
  0x20, 0x81, 0xa9, 0x61, 0x0a, 0x00, 0xa0, 0x80, 0xd1, 0x31, 0x0a, 0x00,
  0x50, 0x80, 0xd1, 0x31, 0x12, 0x00, 0x50, 0xc0, 0xf0, 0x30, 0x64, 0x00,
  0x50, 0xf0, 0xfc, 0x18, 0x88, 0x01, 0x50, 0xfc, 0xbf, 0x18, 0x30, 0x06,
  0x50, 0xfc, 0xa3, 0x18, 0xc0, 0x08, 0x50, 0x00, 0xa0, 0x14, 0x00, 0x13,
  0x90, 0x00, 0x40, 0x0d, 0x00, 0x14, 0xa0, 0x00, 0x40, 0x0d, 0x00, 0x14,
  0x20, 0x01, 0x40, 0x0b, 0x00, 0x14, 0x40, 0x02, 0x81, 0x04, 0x06, 0x0a,
  0x80, 0xfd, 0x81, 0x04, 0xfa, 0x05, 0x00, 0xfe, 0x80, 0x07, 0xfe, 0x03,
  0x00, 0x00, 0x00, 0x00, 0x00, 0x00, 0x00, 0x00, 0x00, 0x00, 0x00, 0x00,
  0x00, 0x00, 0x00, 0x00, 0x00, 0x00, 0x00, 0x00, 0x00, 0x00, 0x00, 0x00,
  };
