#define x_width 16
#define x_height 16
static char x_bits[] = {
0x1f, 0xe0, 
0x7f, 0xe6, 
0x7f, 0xe6, 
0x7f, 0x26, 
0x7f, 0x86, 
0x7f, 0xc6, 
0x7f, 0x86, 
0x61, 0x26, 
0x6c, 0x66, 
0xfc, 0xff, 
0x9c, 0x09, 
0x9c, 0x61, 
0x9c, 0x89, 
0x3c, 0x3c, 
0x2c, 0x64, 
0x61, 0x0e, 
}; 
