#define trace_width 48
#define trace_height 48
static unsigned char trace_bits[] = {
  0x00, 0x00, 0x00, 0x00, 0x00, 0x00, 0x00, 0x00, 0x00, 0x00, 0x00, 0x00,
  0x00, 0x00, 0x00, 0x00, 0x80, 0x01, 0x00, 0x00, 0x10, 0x00, 0xc0, 0x03,
  0xa0, 0xaa, 0x28, 0x00, 0xcc, 0x01, 0x50, 0x55, 0x11, 0x00, 0x1e, 0x18,
  0x00, 0x0a, 0x28, 0x00, 0x0e, 0x3c, 0x00, 0x04, 0x10, 0x00, 0xe0, 0x1c,
  0x00, 0x0a, 0x28, 0x28, 0xf8, 0x01, 0x00, 0x04, 0x10, 0x14, 0xfc, 0x33,
  0x00, 0x0a, 0x28, 0x0a, 0xfe, 0x7b, 0x00, 0x04, 0x10, 0x04, 0xff, 0x3b,
  0x00, 0x0a, 0x28, 0x02, 0xff, 0x03, 0x00, 0x04, 0x00, 0x01, 0xff, 0x03,
  0x00, 0x0a, 0x60, 0x00, 0xfe, 0x03, 0x00, 0x04, 0xf0, 0x00, 0xfc, 0x01,
  0x00, 0x0a, 0xe0, 0x0c, 0xf8, 0x00, 0x00, 0x04, 0x06, 0x1e, 0x00, 0x00,
  0x00, 0x0a, 0x0f, 0x1c, 0x00, 0x00, 0x00, 0x04, 0xce, 0x01, 0x00, 0x00,
  0x00, 0x0a, 0xe0, 0x07, 0x00, 0x00, 0x00, 0x00, 0xf3, 0x0f, 0x00, 0x00,
  0x00, 0x80, 0xf7, 0x1f, 0x00, 0x00, 0x00, 0x00, 0xf7, 0x1f, 0x00, 0x00,
  0x00, 0x00, 0xf0, 0x1f, 0x00, 0x00, 0x00, 0x00, 0xf0, 0x1f, 0x00, 0x00,
  0x00, 0x00, 0xf0, 0x1f, 0x00, 0x00, 0x00, 0xfe, 0xe5, 0x8f, 0xe1, 0x1f,
  0x80, 0x7d, 0xc9, 0xc7, 0xf8, 0x1f, 0x40, 0x82, 0x09, 0xc0, 0x24, 0x10,
  0x20, 0x01, 0x28, 0xc0, 0x00, 0x00, 0xa0, 0x00, 0x50, 0x40, 0x0c, 0x00,
  0x50, 0x00, 0x50, 0x00, 0x1e, 0x00, 0x50, 0x00, 0x50, 0x60, 0x0e, 0x00,
  0x50, 0x00, 0x90, 0xf0, 0xc0, 0x00, 0x50, 0x00, 0xa0, 0x70, 0xe0, 0x05,
  0x50, 0x00, 0xa0, 0x00, 0xe7, 0x08, 0x50, 0x00, 0xa0, 0xc4, 0x0f, 0x10,
  0x90, 0x00, 0x40, 0xe5, 0x9f, 0x11, 0xa0, 0x00, 0x40, 0xf1, 0xdf, 0x13,
  0x20, 0x01, 0x40, 0xf9, 0xdf, 0x11, 0x40, 0x02, 0x81, 0xf8, 0x1f, 0x08,
  0x80, 0xfd, 0x81, 0xf8, 0x9f, 0x04, 0x00, 0xfe, 0x80, 0xf3, 0x9f, 0x03,
  0x00, 0x00, 0x00, 0xe0, 0x0f, 0x00, 0x00, 0x00, 0x00, 0xc0, 0x07, 0x00,
  0x00, 0x00, 0x00, 0x00, 0x00, 0x00, 0x00, 0x00, 0x00, 0x00, 0x00, 0x00,
  };
