/* Created with The GIMP */
#define dir_width 48
#define dir_height 48
static unsigned char dir_bits[] = {
   0x00, 0x00, 0x00, 0x00, 0x00, 0x00, 0x00, 0x00, 0x00, 0x00, 0x00, 0x00,
   0x00, 0x00, 0x00, 0x00, 0x00, 0x00, 0x00, 0x00, 0x00, 0x00, 0x00, 0x00,
   0x00, 0x00, 0x00, 0x00, 0x00, 0x00, 0x00, 0x00, 0x00, 0x00, 0x00, 0x00,
   0x00, 0x00, 0x00, 0x00, 0x00, 0x00, 0x00, 0x00, 0x00, 0x00, 0x00, 0x00,
   0x00, 0x00, 0x00, 0x00, 0x00, 0x00, 0x00, 0x00, 0x00, 0x00, 0x00, 0x00,
   0x00, 0x00, 0x00, 0x00, 0x00, 0x00, 0x00, 0xfc, 0xff, 0x01, 0x00, 0x00,
   0x00, 0x02, 0x00, 0x02, 0x00, 0x00, 0x00, 0x03, 0x00, 0x02, 0x00, 0x00,
   0x00, 0x01, 0x00, 0xfc, 0x7f, 0x00, 0x00, 0x07, 0x00, 0x03, 0xc0, 0x00,
   0x80, 0xfd, 0xff, 0x01, 0xc0, 0x00, 0x80, 0x01, 0x00, 0x00, 0xc0, 0x00,
   0x80, 0x01, 0x00, 0x00, 0xc0, 0x00, 0x80, 0x01, 0x00, 0x00, 0xc0, 0x00,
   0x80, 0x01, 0x00, 0x00, 0xc0, 0x00, 0x80, 0x01, 0x00, 0x00, 0xc0, 0x00,
   0x80, 0x01, 0x00, 0x00, 0xc0, 0x00, 0x80, 0x01, 0x00, 0x00, 0xc0, 0x00,
   0x80, 0x01, 0x00, 0x00, 0xc0, 0x00, 0x80, 0x01, 0x00, 0x00, 0xc0, 0x00,
   0x80, 0x01, 0x00, 0x00, 0xc0, 0x00, 0x80, 0x01, 0x00, 0x00, 0xc0, 0x00,
   0x80, 0x01, 0x00, 0x00, 0xc0, 0x00, 0x80, 0x01, 0x00, 0x00, 0xc0, 0x00,
   0x80, 0x01, 0x00, 0x00, 0xc0, 0x00, 0x80, 0x01, 0x00, 0x00, 0xc0, 0x00,
   0x80, 0x01, 0x00, 0x00, 0xc0, 0x00, 0x80, 0x01, 0x00, 0x00, 0xc0, 0x00,
   0x80, 0x01, 0x00, 0x00, 0xc0, 0x00, 0x80, 0x01, 0x00, 0x00, 0xc0, 0x00,
   0x80, 0x01, 0x00, 0x00, 0xc0, 0x00, 0x00, 0xff, 0xff, 0xff, 0x7f, 0x00,
   0x00, 0x00, 0x00, 0x00, 0x00, 0x00, 0x00, 0x00, 0x00, 0x00, 0x00, 0x00,
   0x00, 0x00, 0x00, 0x00, 0x00, 0x00, 0x00, 0x00, 0x00, 0x00, 0x00, 0x00,
   0x00, 0x00, 0x00, 0x00, 0x00, 0x00, 0x00, 0x00, 0x00, 0x00, 0x00, 0x00,
   0x00, 0x00, 0x00, 0x00, 0x00, 0x00, 0x00, 0x00, 0x00, 0x00, 0x00, 0x00,
   0x00, 0x00, 0x00, 0x00, 0x00, 0x00, 0x00, 0x00, 0x00, 0x00, 0x00, 0x00 };
